<svg viewBox="0 0 512 512" xmlns="http://www.w3.org/2000/svg">
  <!-- Lumenfi — Gradient L Logo (Aurum Quietus, v2 thick L) -->
  <defs>
    <radialGradient id="bgGlow" cx="50%" cy="40%" r="55%">
      <stop offset="0%" stop-color="#1E170E"/>
      <stop offset="100%" stop-color="#0A090C"/>
    </radialGradient>
    <linearGradient id="rayGrad" x1="0%" y1="0%" x2="0%" y2="100%">
      <stop offset="0%" stop-color="#E4C789" stop-opacity="0.94"/>
      <stop offset="100%" stop-color="#8A6932" stop-opacity="0.24"/>
    </linearGradient>
    <radialGradient id="haloGrad" cx="50%" cy="50%" r="50%">
      <stop offset="0%" stop-color="#E4C789" stop-opacity="0.20"/>
      <stop offset="100%" stop-color="#E4C789" stop-opacity="0"/>
    </radialGradient>
    <clipPath id="rounded">
      <rect x="0" y="0" width="512" height="512" rx="113" ry="113"/>
    </clipPath>
  </defs>
  <g clip-path="url(#rounded)">
    <rect width="512" height="512" fill="url(#bgGlow)"/>
    <circle cx="256" cy="256" r="115" fill="url(#haloGrad)"/>
    <g stroke="url(#rayGrad)" stroke-width="1.5" fill="none" stroke-linecap="round">
      <line x1="256.0" y1="144.0" x2="256.0" y2="26.0"/>
      <line x1="285.0" y1="147.8" x2="315.5" y2="33.8"/>
      <line x1="312.0" y1="159.0" x2="371.0" y2="56.8"/>
      <line x1="335.2" y1="176.8" x2="418.6" y2="93.4"/>
      <line x1="353.0" y1="200.0" x2="455.2" y2="141.0"/>
      <line x1="364.2" y1="227.0" x2="478.2" y2="196.5"/>
      <line x1="368.0" y1="256.0" x2="486.0" y2="256.0"/>
      <line x1="364.2" y1="285.0" x2="478.2" y2="315.5"/>
      <line x1="353.0" y1="312.0" x2="455.2" y2="371.0"/>
      <line x1="335.2" y1="335.2" x2="418.6" y2="418.6"/>
      <line x1="312.0" y1="353.0" x2="371.0" y2="455.2"/>
      <line x1="285.0" y1="364.2" x2="315.5" y2="478.2"/>
      <line x1="256.0" y1="368.0" x2="256.0" y2="486.0"/>
      <line x1="227.0" y1="364.2" x2="196.5" y2="478.2"/>
      <line x1="200.0" y1="353.0" x2="141.0" y2="455.2"/>
      <line x1="176.8" y1="335.2" x2="93.4" y2="418.6"/>
      <line x1="159.0" y1="312.0" x2="56.8" y2="371.0"/>
      <line x1="147.8" y1="285.0" x2="33.8" y2="315.5"/>
      <line x1="144.0" y1="256.0" x2="26.0" y2="256.0"/>
      <line x1="147.8" y1="227.0" x2="33.8" y2="196.5"/>
      <line x1="159.0" y1="200.0" x2="56.8" y2="141.0"/>
      <line x1="176.8" y1="176.8" x2="93.4" y2="93.4"/>
      <line x1="200.0" y1="159.0" x2="141.0" y2="56.8"/>
      <line x1="227.0" y1="147.8" x2="196.5" y2="33.8"/>
    </g>
    <!-- L — vertical stem -->
    <rect x="189" y="149" width="25" height="215" fill="#C9A45A"/>
    <!-- L — horizontal foot -->
    <rect x="189" y="347" width="107" height="17" fill="#C9A45A"/>
    <!-- Serifs (top of stem) -->
    <rect x="181" y="149" width="41" height="5" fill="#C9A45A"/>
    <!-- Serif right end of foot -->
    <rect x="291" y="339" width="5" height="25" fill="#C9A45A"/>
    <!-- Serif left foot extension -->
    <rect x="189" y="339" width="5" height="8" fill="#C9A45A"/>
  </g>
</svg>
